<?xml version="1.0" standalone="no"?>
<!DOCTYPE svg PUBLIC "-//W3C//DTD SVG 20010904//EN"
 "http://www.w3.org/TR/2001/REC-SVG-20010904/DTD/svg10.dtd">
<svg version="1.0" xmlns="http://www.w3.org/2000/svg"
 width="600.000000pt" height="360.000000pt" viewBox="0 0 600.000000 360.000000"
 preserveAspectRatio="xMidYMid meet">
<metadata>
Created by potrace 1.16, written by Peter Selinger 2001-2019
</metadata>
<g transform="translate(0.000000,360.000000) scale(0.100000,-0.100000)"
fill="#000000" stroke="none">
<path d="M4 3318 c3 -156 7 -302 9 -326 2 -24 -1 -46 -6 -49 -5 -3 -3 -9 4
-14 10 -6 11 -9 2 -9 -8 0 -13 -15 -13 -40 0 -43 16 -55 23 -17 3 12 4 -29 2
-90 -2 -83 0 -113 9 -113 6 0 12 -9 13 -20 2 -17 -3 -19 -25 -14 -21 4 -24 3
-12 -5 8 -6 24 -11 35 -12 16 0 15 -2 -6 -10 -21 -8 -28 -18 -31 -47 -3 -20
-3 -43 0 -49 5 -16 42 -17 42 -2 0 8 5 7 16 -2 14 -11 14 -13 -1 -21 -9 -5
-21 -8 -28 -5 -14 4 -37 -16 -37 -33 0 -7 10 -5 28 4 16 8 34 11 41 6 10 -6 8
-10 -9 -15 l-23 -7 24 -20 24 -19 -32 15 c-18 9 -37 16 -43 16 -7 0 -9 -329
-8 -1092 3 -901 5 -1093 16 -1090 8 1 11 -2 7 -8 -3 -6 -11 -8 -16 -5 -5 4 -9
-35 -9 -95 0 -71 3 -99 11 -94 8 4 8 0 0 -15 l-11 -20 1895 -1 c1895 0 1896 0
1890 20 -4 12 -2 20 5 20 6 0 8 -5 4 -12 -5 -8 0 -9 14 -6 15 4 22 2 22 -8 0
-12 163 -14 1085 -14 l1085 0 0 1800 0 1800 -997 0 c-761 -1 -1001 -4 -1012
-13 -12 -9 -13 -9 -7 1 5 8 -1 12 -19 12 -17 0 -24 -4 -19 -12 5 -7 3 -8 -7
-3 -7 5 -190 11 -406 13 -311 3 -393 1 -393 -9 0 -7 -3 -10 -6 -6 -4 3 -14 -2
-23 -12 -16 -19 -87 -39 -77 -22 3 5 0 11 -8 14 -15 6 -29 -16 -18 -27 8 -9
12 -36 5 -36 -3 0 -12 8 -19 18 -12 15 -12 13 -5 -13 4 -16 6 -36 4 -42 -3 -7
0 -13 5 -13 6 0 12 6 15 13 3 9 9 8 21 -4 13 -12 15 -21 6 -43 -8 -21 -6 -32
8 -53 16 -26 16 -27 -1 -20 -22 8 -22 5 6 -24 12 -14 29 -23 38 -21 13 2 16
-4 14 -26 -1 -16 -5 -34 -9 -40 -4 -7 -2 -12 3 -12 10 0 15 13 12 35 0 6 13
10 29 10 17 0 30 -5 30 -12 0 -9 7 -10 25 -3 16 6 27 6 31 -2 4 -6 3 -8 -4 -4
-6 3 -13 2 -17 -4 -3 -5 -1 -10 6 -10 7 0 9 -3 6 -6 -4 -4 -13 -1 -22 6 -10 8
-15 9 -15 1 0 -6 11 -13 24 -17 24 -6 45 -34 26 -34 -6 0 -10 5 -10 11 0 5 -5
7 -11 3 -6 -3 -15 0 -20 7 -7 11 -9 11 -9 -3 0 -9 -4 -19 -10 -23 -5 -3 -8 9
-6 29 1 24 -3 37 -13 41 -24 9 -34 -10 -20 -36 7 -13 13 -28 14 -34 0 -14 36
-19 44 -7 4 7 22 6 54 -5 38 -12 51 -13 60 -4 9 9 8 11 -7 5 -14 -5 -17 -4
-11 5 6 10 2 11 -15 6 -17 -5 -21 -3 -19 12 2 10 0 24 -4 31 -5 7 -3 12 5 12
9 0 9 3 -2 10 -8 5 -10 10 -5 11 65 6 105 27 105 56 0 15 16 18 24 4 4 -5 0
-12 -6 -14 -8 -3 -6 -6 5 -6 11 -1 15 -5 11 -13 -5 -8 -2 -9 10 -5 14 6 17 3
12 -8 -3 -9 -2 -13 4 -10 6 3 10 14 10 23 0 13 2 14 9 4 4 -7 12 -12 17 -11
17 4 44 -13 38 -23 -4 -6 2 -8 15 -3 19 6 21 3 21 -38 0 -47 11 -57 67 -57 17
0 20 -4 15 -22 -7 -30 -20 -38 -59 -38 -27 0 -34 -4 -39 -27 -3 -16 -8 -36
-10 -45 -4 -14 4 -17 45 -20 50 -3 50 -3 38 -28 -11 -22 -20 -25 -79 -28 -76
-3 -84 5 -68 73 14 59 12 75 -7 74 -11 0 -13 -3 -6 -6 10 -3 9 -8 -3 -20 -12
-12 -20 -13 -40 -5 -13 7 -23 8 -22 4 4 -15 -15 -98 -24 -109 -6 -7 -21 -13
-35 -13 -23 0 -23 2 -17 53 10 77 10 82 -3 80 -7 -2 -13 2 -13 7 0 6 7 10 15
10 9 0 15 9 15 25 0 14 -4 25 -9 25 -5 0 -12 -11 -15 -25 -4 -14 -14 -25 -24
-25 -16 -1 -15 -2 1 -11 16 -9 18 -19 12 -62 -4 -29 -12 -58 -17 -64 -11 -14
-152 -18 -183 -7 -9 4 -21 17 -26 30 -7 21 -15 24 -58 24 -47 0 -50 -2 -53
-27 -2 -17 -10 -29 -20 -31 -16 -3 -18 7 -18 102 0 58 4 107 8 110 12 7 91 7
136 0 30 -5 37 -4 34 7 -3 8 -14 13 -26 12 -20 -2 -23 11 -8 35 7 11 4 11 -12
1 -20 -13 -52 -7 -52 10 0 5 6 11 13 14 7 2 6 3 -3 3 -8 -1 -24 10 -36 23 -16
18 -21 20 -21 8 0 -9 4 -14 8 -11 15 9 21 -17 7 -34 -12 -15 -11 -16 5 -3 9 7
17 9 17 3 0 -25 -53 -18 -56 8 -1 5 -2 16 -3 24 -1 17 -60 29 -77 16 -18 -16
-28 5 -14 30 9 16 8 20 -5 20 -8 0 -15 -9 -15 -20 0 -26 -25 -36 -45 -20 -13
11 -14 10 -10 -1 3 -8 -4 -20 -15 -27 -26 -16 -103 -5 -96 13 3 8 -2 12 -12
11 -9 -2 -18 -8 -20 -14 -2 -6 -10 -8 -18 -5 -8 3 -14 0 -14 -7 0 -6 -5 -8
-10 -5 -13 8 -52 -4 -45 -15 3 -4 -13 -3 -35 2 -33 9 -44 8 -59 -6 -9 -9 -23
-16 -30 -16 -7 0 -19 -7 -27 -15 -24 -24 -33 -18 -56 35 -12 27 -25 47 -30 43
-5 -3 -16 4 -24 16 -9 12 -20 19 -25 16 -5 -4 -9 -1 -9 6 0 7 -3 9 -7 6 -3 -4
-13 -1 -21 6 -13 10 -14 9 -7 -2 5 -10 4 -12 -3 -7 -7 4 -12 14 -12 22 0 8 -4
12 -10 9 -5 -3 -10 2 -10 12 0 10 -6 30 -14 44 -8 15 -13 41 -11 59 2 25 0 30
-14 25 -9 -3 -5 4 9 15 14 11 19 20 12 20 -9 0 -11 7 -7 20 3 11 4 29 0 39 -5
17 -17 19 -127 20 l-122 2 23 -25 c20 -21 21 -27 10 -47 -13 -26 -20 -189 -8
-189 4 0 6 -10 4 -22 -5 -29 4 -44 30 -50 11 -2 18 -10 16 -19 -2 -8 -4 -19
-4 -26 0 -6 -9 -14 -19 -16 -10 -3 -16 -1 -13 3 3 5 1 11 -4 15 -6 3 -8 11 -5
18 2 7 -5 18 -17 25 -12 8 -18 9 -15 4 3 -6 3 -12 -1 -15 -5 -2 -1 -2 7 0 11
3 12 1 4 -7 -7 -7 -24 -13 -38 -13 -14 -1 -26 -6 -26 -11 0 -5 -9 2 -21 15
-11 13 -24 24 -29 24 -5 0 -12 3 -15 7 -4 4 -16 3 -26 -3 -14 -7 -19 -6 -19 2
0 7 -8 5 -20 -6 -15 -14 -20 -15 -20 -4 0 11 -2 11 -10 -1 -6 -10 -10 -11 -10
-2 0 6 -12 12 -26 12 -29 0 -53 19 -46 38 2 6 -2 12 -9 12 -8 0 -5 6 7 16 10
8 13 12 5 8 -10 -5 -12 1 -7 27 l5 34 -11 -32 c-12 -36 -34 -47 -23 -12 5 15
4 19 -4 15 -6 -4 -11 -2 -11 3 0 6 -5 11 -11 11 -5 0 -7 -5 -3 -12 4 -6 3 -8
-4 -4 -6 3 -13 2 -17 -4 -12 -19 -38 -11 -32 10 3 11 4 20 3 20 -13 0 -76 -38
-93 -57 -13 -13 -23 -20 -23 -14 0 5 -14 20 -32 32 -18 14 -28 17 -24 8 5 -9
3 -9 -6 2 -7 9 -20 18 -28 22 -9 3 -10 6 -2 6 21 2 13 21 -9 21 -18 0 -19 2
-9 15 7 9 10 18 6 22 -3 3 -6 1 -6 -5 0 -7 -7 -12 -16 -12 -9 0 -12 -5 -8 -12
3 -7 -5 -1 -20 14 -26 27 -26 58 0 58 8 0 14 4 14 8 0 5 -14 7 -30 4 -24 -3
-29 -1 -25 11 4 9 -1 16 -14 20 -11 2 -21 15 -23 28 l-3 24 -169 2 c-142 2
-174 0 -197 -14 -22 -13 -26 -20 -17 -30 12 -15 0 -17 -21 -4 -8 5 -11 16 -6
30 l6 21 -346 0 -347 0 6 -282z m2856 -183 c0 -11 -20 -15 -87 -17 -86 -3 -88
-3 -88 -28 0 -23 4 -25 45 -26 96 -3 100 -4 100 -19 0 -12 -15 -15 -76 -15
l-75 0 3 -27 3 -28 88 2 c81 3 87 1 87 -18 0 -19 -5 -20 -102 -17 l-103 3 -3
102 -3 102 98 3 c109 3 113 3 113 -17z m980 -16 c0 -49 -31 -244 -41 -253 -5
-6 -54 -11 -109 -13 -106 -3 -116 2 -86 42 10 15 28 19 73 21 93 2 101 18 13
24 l-75 5 1 55 c0 30 4 77 8 103 7 45 9 48 34 45 29 -3 30 -6 21 -103 l-4 -40
45 0 45 0 12 75 c6 41 12 76 12 76 1 1 12 -1 26 -4 20 -3 25 -10 25 -33z
m-1668 14 c10 -9 18 -22 18 -30 0 -18 -26 -17 -34 2 -4 11 -21 15 -65 15 -33
0 -62 -4 -66 -9 -9 -16 -14 -107 -5 -120 10 -17 100 -28 100 -12 0 7 6 11 13
10 6 -1 20 1 30 6 22 9 29 3 21 -19 -9 -24 -45 -36 -105 -36 -73 0 -99 29 -99
110 0 84 17 100 107 100 48 0 72 -5 85 -17z m903 -966 c24 -6 31 -18 33 -56 3
-43 -16 -67 -25 -32 -3 11 -9 18 -14 15 -5 -3 -6 2 -3 10 6 16 -21 34 -32 23
-4 -3 -8 -51 -9 -106 -3 -94 -2 -101 16 -101 10 0 19 -4 19 -10 0 -6 -29 -10
-67 -10 -66 0 -67 1 -46 18 21 16 22 24 20 113 -1 78 -4 96 -17 96 -19 0 -41
-28 -35 -44 2 -7 -2 -13 -9 -13 -17 0 -27 49 -15 72 8 15 24 18 87 19 56 0 72
3 57 10 -17 8 -16 9 5 4 14 -3 30 -7 35 -8z m161 -7 c11 1 36 2 57 1 l37 -1
-1 -47 c0 -41 -2 -45 -12 -30 -7 10 -17 25 -22 34 -14 19 -76 23 -83 4 -3 -8
0 -11 7 -7 6 4 11 3 11 -3 0 -5 -5 -11 -11 -13 -6 -2 -8 -14 -4 -29 5 -20 13
-26 36 -26 16 0 32 -3 36 -6 12 -12 -7 -21 -41 -19 -32 2 -32 2 -35 -48 l-2
-50 32 0 c30 0 69 29 69 52 0 4 4 8 9 8 12 0 18 -31 11 -59 -5 -24 -8 -25 -99
-23 -97 2 -118 7 -89 23 12 7 14 16 8 43 -4 19 -6 37 -3 40 2 2 6 32 7 65 2
47 -1 61 -12 61 -28 0 -5 25 26 28 18 2 32 9 32 15 0 8 3 8 9 -1 4 -8 17 -13
27 -12z m1060 0 l44 0 0 -45 c0 -52 -13 -59 -29 -15 -9 26 -25 36 -48 28 -4
-2 -8 -46 -8 -98 -2 -85 0 -97 19 -112 20 -17 19 -18 -43 -18 l-64 0 20 23
c18 19 21 33 20 105 -2 60 -6 85 -17 92 -16 10 -40 -5 -40 -25 0 -7 -7 -18
-15 -25 -13 -11 -15 -6 -15 39 l0 51 54 0 c32 0 58 5 62 12 6 9 9 9 12 0 2 -7
22 -12 48 -12z m-3686 -10 c3 0 -2 -5 -11 -10 -13 -7 -16 -29 -17 -115 0 -60
3 -105 9 -105 5 0 9 -4 9 -10 0 -5 -22 -10 -50 -10 -27 0 -50 5 -50 10 0 6 6
10 13 10 8 0 12 16 12 48 l0 47 -54 0 -53 0 -4 -44 c-3 -33 0 -47 13 -57 16
-12 10 -13 -42 -13 -51 0 -57 2 -43 12 14 11 17 32 17 120 1 95 -1 107 -17
107 -14 0 -15 2 -2 10 19 12 100 13 100 1 0 -5 -7 -11 -15 -15 -9 -3 -15 -18
-15 -40 0 -41 15 -51 75 -51 39 0 40 1 41 38 1 20 -3 37 -8 37 -5 0 -6 5 -3
10 3 6 1 10 -4 10 -6 0 -11 4 -11 9 0 14 40 18 75 9 16 -4 32 -8 35 -8z m246
-22 c11 -10 24 -15 29 -11 4 5 6 0 2 -9 -3 -9 0 -19 8 -22 14 -5 11 -70 -6
-116 -14 -38 -72 -73 -123 -74 -82 -2 -129 48 -130 140 -1 29 2 50 7 47 4 -2
7 2 7 10 0 23 37 49 87 62 52 13 80 7 119 -27z m154 23 c0 -4 -5 -12 -12 -19
-9 -9 -9 -17 -1 -34 6 -13 19 -45 29 -71 l17 -49 14 27 c17 31 20 76 8 123
l-7 32 41 0 c22 0 41 -4 41 -10 0 -5 -7 -10 -16 -10 -11 0 -14 -6 -8 -22 3
-13 11 -24 15 -26 5 -2 9 -14 9 -27 0 -31 17 -75 29 -75 5 0 16 24 26 53 23
68 24 80 13 93 -12 16 16 26 44 15 18 -6 19 -9 5 -14 -10 -4 -17 -13 -17 -20
0 -14 -69 -208 -77 -217 -3 -3 -13 5 -23 17 -9 12 -21 19 -24 15 -4 -3 -4 1
-1 10 7 17 -10 58 -24 58 -5 0 -16 -21 -26 -47 -10 -27 -21 -52 -26 -57 -9
-10 -61 85 -70 129 -11 48 -33 99 -47 108 -24 16 4 33 47 29 23 -2 41 -7 41
-11z m1130 -43 c0 -27 -4 -38 -12 -35 -7 2 -14 9 -14 15 -1 7 -2 17 -3 22 -2
15 -51 31 -73 24 -15 -5 -18 -13 -16 -47 3 -41 4 -42 41 -45 20 -2 37 -7 37
-13 0 -9 -27 -13 -62 -10 -15 2 -18 -6 -18 -48 l0 -51 35 0 c28 0 37 5 50 30
9 17 20 30 25 30 13 0 13 -77 0 -82 -21 -7 -190 4 -190 13 0 5 7 9 16 9 20 0
16 60 -6 78 -13 11 -13 11 1 6 14 -4 17 2 17 35 0 22 -4 43 -9 47 -6 4 -5 11
3 21 10 12 9 18 -6 29 -15 11 -16 15 -5 19 26 9 164 10 177 1 6 -5 12 -26 12
-48z m1415 23 c14 -11 20 -28 20 -57 0 -26 -4 -40 -11 -37 -6 2 -16 -3 -23
-11 -9 -11 -8 -20 7 -45 10 -17 22 -28 26 -24 4 4 4 0 0 -10 -4 -11 0 -19 10
-23 26 -10 18 -22 -18 -26 -27 -3 -37 1 -45 17 -50 93 -79 111 -77 45 0 -25 5
-40 13 -40 7 0 13 -4 13 -9 0 -11 -47 -18 -84 -11 -26 4 -27 6 -13 19 24 19
25 221 2 221 -8 0 -15 4 -15 10 0 12 129 18 155 6 11 -5 29 -16 40 -25z m533
11 c14 -18 15 -41 3 -61 -7 -10 -12 -11 -27 -1 -17 10 -17 11 -1 6 15 -5 16
-2 7 14 -6 11 -23 22 -38 26 -15 3 -32 7 -37 9 -11 3 -13 -4 -18 -55 -2 -20 4
-25 36 -33 37 -9 51 -27 21 -27 -14 0 -15 -2 -3 -17 12 -16 11 -15 -8 1 -12
10 -28 16 -35 14 -14 -5 -20 -78 -6 -78 5 0 6 -4 3 -10 -4 -6 7 -10 27 -10 25
0 38 7 53 29 10 16 23 27 28 24 7 -4 3 -60 -5 -68 -2 -2 -46 -5 -97 -6 -70 -1
-95 2 -102 12 -11 17 -12 39 -1 24 4 -5 13 -11 19 -12 17 -4 16 156 0 176 -10
12 -9 13 1 7 10 -6 13 -3 10 10 -2 13 -13 19 -35 21 l-33 3 1 -63 c4 -223 1
-224 -127 -64 -25 32 -48 56 -51 53 -3 -2 -7 -36 -10 -74 -5 -66 -4 -69 18
-75 37 -10 10 -25 -33 -20 -36 5 -54 23 -23 23 12 0 15 14 15 66 0 46 -3 63
-11 58 -8 -5 -9 -2 -1 12 8 15 7 24 -6 38 -16 18 -16 19 1 13 11 -4 17 -1 17
8 0 8 -8 18 -17 24 -17 9 -17 10 0 16 31 13 61 -5 106 -60 24 -30 47 -52 52
-49 5 3 6 -1 3 -9 -3 -8 2 -20 11 -27 17 -14 16 -16 21 60 3 42 -1 58 -13 67
-15 11 -15 13 1 19 10 4 33 2 52 -4 19 -5 34 -6 34 -2 0 23 179 16 198 -8z
m653 18 c10 0 19 -4 19 -10 0 -5 -7 -10 -15 -10 -13 0 -16 -16 -14 -96 1 -95
2 -96 32 -114 32 -20 49 -16 81 16 22 22 23 172 1 180 -8 4 -15 12 -15 20 0
10 10 13 36 10 38 -5 59 -16 30 -16 -14 0 -17 -12 -17 -82 0 -106 -2 -137 -10
-132 -4 2 -12 -2 -18 -10 -19 -23 -76 -28 -115 -12 -30 12 -38 23 -48 60 -7
25 -16 46 -20 46 -4 0 -8 5 -8 11 0 5 4 7 10 4 6 -4 9 15 7 49 -2 63 -27 90
-27 31 0 -37 -15 -47 -25 -16 -10 33 -40 53 -69 45 -21 -5 -26 -12 -26 -39 0
-34 18 -58 42 -54 24 3 38 -1 38 -11 0 -5 -15 -10 -33 -10 -35 0 -61 -27 -47
-50 4 -6 5 -21 3 -31 -4 -14 0 -19 16 -19 11 0 21 -4 21 -10 0 -10 -34 -15
-85 -11 -35 3 -60 21 -28 21 20 0 21 5 21 88 0 53 -5 90 -12 95 -8 5 -7 10 4
16 12 9 12 11 -3 17 -43 16 -8 25 99 23 63 0 118 2 122 5 3 4 12 4 20 1 7 -3
22 -5 33 -5z m296 -5 c0 -8 -6 -15 -14 -15 -21 0 -17 -86 5 -100 16 -11 16
-11 0 -6 -16 5 -18 -2 -18 -44 0 -28 0 -53 -1 -57 0 -11 29 -16 56 -9 16 4 26
17 33 43 9 36 10 37 19 14 5 -13 7 -36 5 -52 -4 -27 -8 -29 -48 -30 -112 -3
-144 -1 -144 11 0 6 7 10 15 10 12 0 15 18 13 106 -1 77 -6 108 -15 111 -28
11 -11 22 40 26 28 2 52 4 53 5 0 1 1 -5 1 -13z m-3480 -22 c41 -30 57 -60 55
-97 -2 -15 3 -35 10 -44 9 -11 9 -13 1 -9 -7 5 -19 -4 -29 -22 -10 -16 -28
-35 -41 -42 -13 -7 -23 -15 -23 -18 0 -3 -39 -5 -87 -3 -72 3 -85 6 -71 16 23
17 25 214 1 223 -31 12 12 23 82 22 57 -1 76 -6 102 -26z m280 15 c43 -16 86
-94 73 -136 -20 -66 -30 -80 -75 -102 -46 -22 -68 -22 -126 1 -36 14 -69 81
-62 128 3 20 5 42 6 49 0 12 50 54 77 65 26 10 72 8 107 -5z m491 6 c17 -5 22
-14 22 -40 0 -19 -4 -34 -10 -34 -5 0 -10 5 -10 12 0 20 -32 48 -57 48 -30 0
-55 -46 -33 -60 8 -5 18 -6 22 -4 4 3 8 1 8 -5 0 -6 13 -17 29 -26 50 -25 62
-44 60 -89 -2 -24 -7 -43 -13 -44 -6 -1 -33 -7 -59 -13 -38 -10 -53 -10 -68
-1 -11 7 -24 10 -29 7 -17 -10 -23 23 -12 62 9 34 11 36 17 16 4 -13 11 -23
16 -23 5 0 8 -5 7 -12 -5 -20 42 -38 69 -25 35 15 25 45 -22 71 -60 32 -85 62
-85 101 0 27 6 37 28 49 28 16 81 20 120 10z m389 -52 c26 -31 60 -69 75 -86
l27 -31 1 78 c0 63 -3 77 -16 77 -8 0 -12 5 -9 10 10 17 75 12 75 -5 0 -8 -7
-15 -16 -15 -15 0 -16 -12 -12 -97 8 -164 -1 -169 -98 -48 -38 47 -72 85 -75
85 -3 0 -7 -32 -8 -71 -1 -58 2 -74 16 -85 16 -12 12 -13 -31 -14 -48 0 -49 0
-30 18 17 16 19 30 16 119 -3 89 -6 102 -22 106 -41 11 -53 -14 -54 -110 0
-50 3 -89 8 -86 5 3 6 0 4 -8 -3 -8 2 -19 11 -26 13 -10 5 -12 -47 -13 -40 0
-61 4 -57 10 3 6 13 10 20 10 12 0 14 21 12 110 -1 83 -5 110 -15 110 -7 0
-11 4 -7 10 3 5 46 9 95 8 l89 -1 48 -55z m2619 37 c1 -9 5 -26 8 -37 11 -34
-20 -35 -34 -1 -13 29 -42 44 -77 37 -13 -2 -18 -13 -18 -41 -1 -43 13 -60 46
-55 12 2 24 -3 26 -9 3 -8 -5 -13 -21 -14 -14 -1 -32 -2 -38 -3 -8 0 -14 -19
-16 -43 -3 -38 -1 -43 22 -49 14 -3 26 -10 26 -14 0 -9 -86 -17 -114 -12 -19
4 -22 22 -3 22 9 0 13 28 15 110 3 96 1 110 -13 110 -9 0 -13 5 -10 10 4 7 44
10 102 8 80 -3 97 -6 99 -19z m124 11 c0 -5 -7 -13 -15 -18 -12 -6 -15 -24
-12 -83 2 -41 7 -83 12 -93 6 -14 5 -17 -3 -12 -8 5 -10 2 -6 -8 3 -9 9 -14
12 -13 4 1 9 -2 12 -7 7 -14 -39 -24 -82 -18 -36 4 -55 22 -24 22 17 0 28 135
13 164 -6 13 -6 16 2 12 7 -5 10 1 8 15 -2 13 -9 25 -15 27 -30 10 -7 22 43
22 30 0 55 -4 55 -10z m135 0 c3 -5 0 -10 -8 -10 -11 0 -16 -14 -19 -49 -1
-27 1 -47 5 -44 9 5 4 -43 -5 -52 -3 -3 -1 -22 5 -41 7 -22 17 -34 29 -34 22
0 58 34 58 55 0 8 5 15 10 15 6 0 10 -20 10 -44 l0 -44 -62 -4 c-35 -3 -72 -9
-82 -13 -15 -6 -17 -5 -11 5 6 10 3 12 -13 8 -27 -7 -37 6 -17 22 23 19 19 47
-7 46 -14 -1 -24 6 -26 18 -3 15 1 18 22 14 14 -3 26 -2 26 3 0 4 3 15 7 25 4
10 2 15 -3 11 -5 -3 -10 3 -10 14 0 10 3 19 6 19 15 0 4 57 -14 72 -20 17 -19
17 36 18 31 0 60 -4 63 -10z m322 -50 c0 -20 -3 -26 -9 -18 -4 7 -8 8 -8 2 0
-6 3 -14 7 -18 12 -11 14 -35 17 -196 1 -85 -1 -190 -6 -233 -5 -44 -6 -82 -2
-85 4 -4 9 -1 11 6 11 28 23 9 17 -27 -5 -34 -4 -40 16 -46 l22 -7 -21 -15
c-12 -8 -21 -23 -21 -33 0 -10 -4 -22 -10 -25 -5 -3 -10 2 -10 13 0 10 -6 19
-14 19 -9 0 -18 -23 -26 -69 -6 -37 -16 -68 -21 -68 -5 0 -7 12 -4 28 8 46 -5
92 -26 92 -11 0 -19 5 -19 10 0 6 9 10 19 10 15 0 19 6 16 20 -2 11 0 18 5 15
5 -3 11 59 13 142 4 144 9 192 21 212 4 5 7 49 7 98 0 48 5 93 10 99 6 7 2 17
-11 29 -20 19 -28 41 -10 30 5 -3 15 5 22 19 6 14 12 26 13 26 1 0 2 -14 2
-30z m-4117 -375 c16 -8 35 -24 43 -35 7 -11 17 -17 21 -13 4 4 4 0 0 -10 -3
-10 1 -28 11 -43 9 -15 13 -24 7 -20 -10 6 -22 -15 -22 -41 0 -23 -65 -83 -92
-84 -49 -4 -96 -4 -93 -1 1 1 -13 18 -31 36 -28 28 -34 42 -35 78 -2 83 5 97
69 135 36 22 76 22 122 -2z m548 -8 c12 -11 22 -31 22 -43 0 -28 -20 -74 -32
-74 -17 0 -7 -30 27 -75 l36 -46 -38 3 c-27 2 -41 9 -49 25 -6 13 -13 21 -15
18 -3 -2 -11 11 -18 30 -15 43 -41 47 -41 6 0 -24 3 -28 20 -24 14 4 20 0 20
-11 0 -9 -4 -16 -10 -16 -5 0 -7 -7 -4 -15 5 -12 -4 -15 -50 -15 -60 0 -66 4
-38 27 12 10 14 16 5 19 -7 3 -13 10 -13 15 0 6 5 7 10 4 6 -3 10 3 10 15 0
12 -4 19 -8 16 -5 -3 -9 1 -9 9 0 8 3 15 7 15 3 0 6 25 5 55 0 38 -5 59 -15
65 -13 8 -13 10 0 14 54 19 148 10 178 -17z m1394 -7 c2 -15 1 -36 -2 -46 -7
-18 -7 -18 -14 2 -11 36 -39 55 -73 48 -27 -5 -30 -10 -30 -45 0 -38 2 -39 39
-45 49 -8 49 -22 1 -26 -38 -3 -38 -3 -38 -48 0 -42 2 -45 28 -48 20 -3 35 5
56 27 l29 31 4 -30 c7 -46 -3 -52 -83 -52 -122 0 -126 1 -108 15 22 18 27 215
4 223 -48 19 12 32 121 26 59 -3 62 -5 66 -32z m159 29 l64 -1 -3 -39 c-2 -22
-8 -39 -13 -39 -5 0 -9 5 -9 10 0 19 -40 50 -64 50 -62 0 -51 -56 17 -86 43
-20 77 -57 77 -85 0 -10 -10 -30 -23 -44 -17 -20 -32 -27 -62 -27 -105 -1
-115 5 -107 65 5 31 32 37 32 7 0 -11 5 -20 12 -20 6 0 8 -3 5 -7 -4 -3 2 -12
12 -20 23 -15 68 -3 77 22 9 21 -12 43 -68 71 -47 24 -68 48 -68 79 0 19 42
74 51 69 4 -2 35 -4 70 -5z m311 -40 c5 -56 -7 -70 -25 -27 -8 20 -24 37 -36
41 -20 5 -21 2 -21 -100 0 -89 3 -108 18 -119 15 -12 9 -13 -46 -14 -40 0 -61
4 -57 10 3 6 12 10 19 10 10 0 14 25 14 101 1 56 -1 106 -4 110 -9 16 -44 -11
-58 -44 l-13 -32 -8 28 c-4 15 -4 38 -1 51 7 29 25 33 138 28 l76 -3 4 -40z
m-2227 31 c3 -5 0 -10 -9 -10 -12 0 -14 -17 -13 -93 1 -59 7 -100 15 -109 20
-25 60 -28 88 -6 24 19 25 25 23 114 -1 72 -5 94 -15 94 -29 0 -12 15 19 17
47 3 68 -7 40 -18 -21 -8 -23 -14 -23 -97 0 -74 -3 -94 -20 -114 -24 -31 -62
-40 -116 -26 -39 9 -43 14 -55 56 -8 26 -12 64 -11 85 2 22 -1 37 -8 37 -6 0
-8 5 -3 13 14 23 13 47 -3 47 -8 0 -12 5 -9 10 3 6 26 10 50 10 24 0 47 -4 50
-10z m702 -16 c31 -31 30 -69 -3 -97 l-26 -23 22 -37 c12 -21 31 -42 41 -48
30 -15 22 -29 -15 -29 -25 0 -43 8 -64 30 -18 17 -25 31 -18 34 6 2 3 5 -6 5
-10 1 -18 -6 -18 -15 0 -8 -4 -12 -10 -9 -18 11 -11 -17 8 -31 15 -12 8 -13
-48 -13 -56 0 -63 1 -47 13 21 16 26 142 5 130 -10 -6 -10 -4 0 7 6 7 12 30
12 51 0 29 -4 38 -17 38 -16 0 -16 2 -3 10 8 6 49 9 89 9 64 -2 78 -6 98 -25z
m255 21 c9 -4 12 -18 10 -45 -5 -48 -14 -51 -29 -9 -10 26 -16 31 -37 27 -14
-3 -27 0 -29 6 -10 25 -28 -13 -25 -50 3 -37 5 -39 37 -39 19 0 36 -6 38 -12
3 -7 -2 -13 -11 -13 -9 0 -16 -6 -17 -12 0 -10 -2 -10 -6 0 -2 6 -13 12 -24
12 -16 0 -19 -7 -19 -51 l0 -51 41 5 c40 5 59 19 59 45 0 8 6 12 13 9 10 -3
12 -64 3 -75 -3 -2 -116 -4 -168 -3 -28 1 -41 21 -14 21 12 0 14 21 14 110 -1
94 -3 110 -17 110 -14 0 -14 2 -1 10 16 10 158 14 182 5z m251 -13 c15 -7 27
-18 27 -23 0 -6 4 -8 9 -4 5 3 12 1 16 -5 3 -5 2 -10 -3 -10 -6 0 -7 -14 -2
-35 11 -48 -3 -102 -34 -134 -20 -21 -23 -30 -14 -39 16 -16 39 -15 62 3 11 8
25 15 30 15 8 0 8 -3 1 -8 -6 -4 -18 -19 -28 -34 -22 -35 -56 -36 -87 -3 -13
14 -33 25 -44 25 -12 0 -37 5 -56 10 -69 19 -106 124 -69 197 10 20 19 33 19
28 0 -6 6 -3 13 6 7 9 19 19 27 22 25 10 103 4 133 -11z m180 12 c10 -10 -4
-33 -17 -28 -14 5 -16 -83 -2 -105 6 -8 5 -12 0 -8 -15 9 -3 -71 12 -84 21
-17 62 -14 84 6 17 16 20 31 20 113 0 80 -2 93 -15 88 -9 -3 -15 0 -15 9 0 11
12 15 45 15 25 0 45 -4 45 -10 0 -5 -7 -10 -15 -10 -16 0 -16 -1 -19 -117 -2
-61 -6 -77 -26 -98 -13 -13 -37 -27 -54 -31 -72 -13 -124 39 -130 133 -6 73
-5 70 -15 54 -5 -8 -11 -9 -15 -3 -3 6 3 13 14 17 25 8 27 45 3 45 -15 0 -16
2 -3 10 16 11 93 14 103 4z m-964 -760 c16 -12 22 -23 18 -41 -4 -21 -1 -24
16 -19 21 5 57 -9 69 -28 5 -7 13 -3 23 12 32 44 33 10 2 -63 -22 -52 -37 -75
-49 -75 -15 0 -16 4 -6 25 9 21 8 33 -11 70 -23 47 -48 62 -36 23 4 -13 8 -25
8 -28 1 -3 -5 -14 -12 -25 -10 -16 -21 -19 -62 -17 -33 3 -49 8 -49 18 0 8 -7
11 -17 8 -17 -5 -17 -5 0 6 13 9 17 25 17 80 l0 70 33 0 c18 0 43 -7 56 -16z"/>
<path d="M735 2132 c-19 -13 -37 -59 -40 -98 -6 -98 59 -149 119 -93 19 18 24
73 15 144 -6 40 -64 70 -94 47z"/>
<path d="M1443 2030 l-1 -110 28 0 c16 0 41 11 57 24 25 22 28 31 28 85 0 71
-20 99 -76 106 l-35 4 -1 -109z"/>
<path d="M1743 2128 c-13 -6 -23 -15 -23 -20 0 -17 -2 -23 -10 -33 -12 -14 -5
-97 10 -125 24 -44 94 -40 119 8 13 24 6 98 -10 119 -9 11 -10 14 -1 9 21 -12
13 15 -10 35 -24 21 -42 23 -75 7z"/>
<path d="M1700 1707 c-14 -7 -24 -21 -24 -30 1 -9 -2 -17 -6 -17 -5 0 -8 -27
-7 -59 2 -66 21 -96 64 -104 53 -10 101 80 69 128 -9 13 -16 28 -16 32 0 4 5
1 10 -7 8 -11 9 -7 4 15 -8 37 -34 61 -46 42 -6 -9 -8 -9 -8 1 0 15 -9 15 -40
-1z"/>
<path d="M3070 1698 c-22 -24 -27 -77 -7 -97 8 -9 8 -12 0 -7 -16 9 -21 -23
-8 -52 6 -14 15 -20 25 -15 15 6 35 6 75 1 14 -2 19 2 17 15 -2 9 2 17 8 17
15 0 11 87 -6 121 -22 44 -71 52 -104 17z"/>
</g>
</svg>
